<?xml version="1.0" encoding="UTF-8"?>
<svg id="Layer_1" data-name="Layer 1" xmlns="http://www.w3.org/2000/svg" viewBox="0 0 1080 1080">
  <defs>
    <style>
      .cls-1 {
        fill: #a00038;
      }

      .cls-2 {
        fill: #fff;
      }
    </style>
  </defs>
  <circle class="cls-1" cx="540" cy="540" r="486.48"/>
  <g>
    <path class="cls-2" d="M257.87,584.37l-1.35-1.51c-.67.17-1.35.17-2.19.17-1.35,0-2.86-.17-4.71-.5,0,0-16.49,5.72-27.44,7.24-16.66,2.53-43.43,2.69-43.43-.84,0-4.21,16.49-9.93,24.91-12.12,9.76-2.53,19.19-1.85,28.78-3.37.17,0,1.35.17,3.53.67,2.02.5,3.2.67,3.37.67,2.19,0,4.21-1.01,5.72-3.03h4.71l2.69-10.61.67-80.96c-.5-1.18-.84-1.85-1.18-2.02-.17-1.01-.17-1.68-.34-2.36.51-9.09-2.36-15.32-8.75-18.35-4.21.17-8.25,2.52-12.46,9.09-1.18,4.38-1.85,8.42-2.36,11.78-.34,1.35-.67,2.02-.67,2.02l-2.36,69.85c-.67.67-1.68,1.18-2.86,1.35-8.25,1.35-13.97,2.19-17.17,2.86-23.23,4.54-40.9,11.45-53.19,20.2-2.02,2.19-3.37,3.87-4.21,5.05-1.85,6.23-2.69,10.6-2.69,13.13,0,2.69,1.01,5.05,3.2,6.9.84,2.19,2.53,4.38,4.88,6.23,4.21,2.19,7.41,3.54,9.76,4.21,10.44,2.69,17.34,4.21,20.7,4.04l4.71-.17c2.86-.17,5.05-.34,6.4-.5.51-.51,1.01-.67,1.35-.67l8.08.51,3.37-.51c2.02-.17,5.05-.34,8.58-.34l8.08-1.68c.67,0,1.85-.17,3.53-.34,1.85-.34,2.69-.34,2.69-.34,6.73-3.03,11.78-5.22,15.15-6.73.67-.84,2.69-2.02,5.72-3.54,2.86-1.52,4.54-2.69,5.05-3.37-.51-1.01-.67-1.85-.67-2.52,0-1.68.84-2.86,2.53-3.87,1.68-.84,2.36-1.52,2.36-2.02-1.85-.51-3.03-1.18-3.7-1.68l1.18-2.02Z"/>
    <path class="cls-2" d="M363.75,599.52c1.18-2.36,2.19-3.87,2.86-4.88-2.36-1.85-4.54-6.06-5.55-7.57,0,0-20.7,7.07-30.3,7.07-8.25,0-20.2-2.36-22.05-3.37,0,0,16.5-5.72,25.59-11.78,6.23-4.21,13.47-10.77,14.64-12.46.17-1.52.17-2.53.34-3.37,1.01-1.51,1.52-2.86,1.52-4.04,0-.67-.17-1.35-.51-1.85.67-.67,1.01-1.18,1.01-1.68v-3.54c-1.52-3.37-2.36-5.89-2.36-7.91-.67-.84-1.01-1.35-1.01-1.68-1.52-.34-2.69-.67-3.7-.84,0-1.18,0-1.85.17-2.02-4.88-2.69-9.09-4.04-12.79-4.04-4.04,0-9.09.67-14.98,2.19-6.73,1.68-11.28,3.7-13.97,5.89-1.52,0-2.36,0-2.69.17-6.23,2.53-11.78,7.91-17,16.33-4.54,7.57-6.9,14.14-6.9,19.53,0,.67.34,1.52.84,2.86,1.68,8.58,5.72,16.16,12.12,22.72,8.92,5.89,21.04,9.26,36.02,10.27l20.87-2.69c.5-1.51,1.51-2.86,3.03-3.7,4.71-1.01,8.25-2.02,10.43-2.69,2.36-2.19,3.87-3.37,4.55-3.54-1.85-1.18-3.53-1.85-4.71-2.36,1.18-.84,2.19-1.35,2.86-1.52.34.34.84.51,1.68.51ZM301.64,570.9c2.36-4.04,6.73-8.25,12.29-11.78,5.05-3.03,7.24-2.53,14.14-5.39.65,1.43,1,2.15,1.12,2.25-2.84,3.17-5.36,6.02-9.71,9.03-5.55,3.7-10.44,4.54-15.99,6.73-.67-.67-1.18-.84-1.85-.84Z"/>
    <path class="cls-2" d="M409.2,461.83c-1.35-.51-2.86-1.52-4.38-3.03l-3.53-.34c-1.68,1.68-3.2,4.54-4.21,8.41-1.18,4.21-2.02,7.41-2.53,9.43-2.19,21.88-4.38,42.42-6.73,61.94l-6.9,59.42c0,1.68.5,6.23,1.52,13.63.84,1.51,1.35,2.86,1.68,3.87.84-1.01,1.51-1.35,2.02-1.35,2.53,2.02,4.04,3.2,4.21,3.37.67,0,1.35,0,2.02-.17l1.01-.17c.5.5,1.18.84,1.85.84,2.19-1.01,4.04-1.35,5.89-1.35l14.81-130.28v-8.92c0-1.35-.84-4.54-2.69-9.76-2.36-3.03-3.7-4.88-4.04-5.55Z"/>
    <path class="cls-2" d="M441.52,557.1c-1.18-.84-2.02-1.18-2.69-1.18l-4.38,1.01c-.51,1.52-1.35,2.86-3.03,4.21l-2.02,9.76-.5,14.81c-.17,3.37,0,5.72.34,7.58,1.52,7.91,3.2,13.47,5.22,16.66,4.21,1.01,6.4,1.68,6.9,2.02.67-.34,1.18-.67,1.68-.84.67.34,1.18.67,1.68.84.67-.51,1.18-.84,1.68-1.18l1.85.34,2.52-6.06v-8.42c0-2.69,0-5.05.17-7.41.17-1.68.34-3.03.34-4.21.17-1.01.34-1.35.34-1.01v-10.27c0-2.53-.84-5.22-2.69-8.42-3.2-3.54-5.72-6.4-7.41-8.25Z"/>
    <path class="cls-2" d="M550.09,553.06s-.05.02-.06.04c.04.1.06.09.06-.04Z"/>
    <path class="cls-2" d="M559.35,585.21l-10.1-2.53-38.04,4.21c-5.89,0-10.61-1.01-13.8-3.2,0-.34-.17-.67-.34-.84,2.36-4.71,6.06-8.25,10.94-10.27,6.56-2.69,11.62-4.38,14.98-5.55,1.85-1.85,3.03-2.86,3.54-3.2,14.81-6.75,22.69-10.27,23.5-10.74-.06-.16-.17-.59-.27-1.21,1.52-1.68,2.86-3.37,3.7-5.22l-3.87-11.11c-.67.17-1.35.34-2.19.34-.5,0-1.18,0-2.36-.17-1.18-.17-1.68-.17-1.85-.17-2.86,0-6.4.67-10.61,2.02-5.72,1.85-8.58,2.69-8.92,2.69-3.2,1.35-5.39,2.53-6.73,3.03-19.19,8.58-33.16,17.34-42.08,26.59-1.18,1.01-2.69,3.87-4.38,8.92-1.68,4.88-2.53,8.75-2.53,11.28,0,5.55,3.03,11.61,8.92,18.18.51.17,2.36.84,5.39,2.19,2.69,1.01,4.54,1.68,5.89,1.68,0,0,.67-.17,1.85-.34l5.89,1.68c.17,0,.67,0,1.35-.17.67-.17,1.01-.34,1.18-.34l9.59,1.35c1.85-.34,3.7-.5,5.55-.67,2.53-.17,4.38-.84,5.55-1.85.51.17,1.35.34,2.19.34,2.53,0,5.39-.84,8.42-2.69,7.41-1.35,12.79-2.86,16.33-4.71,1.35-.67,2.02-1.68,2.02-2.69.5-.5,2.86-1.85,6.73-3.87,2.52-1.35,4.38-2.86,5.39-4.71.17-2.53.17-4.71,0-6.4l-.84-1.85Z"/>
    <path class="cls-2" d="M590.16,557.1c-1.18-.84-2.02-1.18-2.69-1.18l-4.38,1.01c-.51,1.52-1.35,2.86-3.03,4.21l-2.02,9.76-.5,14.81c-.17,3.37,0,5.72.34,7.58,1.52,7.91,3.2,13.47,5.22,16.66,4.21,1.01,6.4,1.68,6.9,2.02.67-.34,1.18-.67,1.68-.84.67.34,1.18.67,1.68.84.67-.51,1.18-.84,1.68-1.18l1.85.34,2.53-6.06v-8.42c0-2.69,0-5.05.17-7.41.17-1.68.34-3.03.34-4.21.17-1.01.34-1.35.34-1.01v-10.27c0-2.53-.84-5.22-2.69-8.42-3.2-3.54-5.72-6.4-7.41-8.25Z"/>
    <path class="cls-2" d="M601.51,526.26c-.67-1.85-1.68-2.86-3.03-3.37-2.02-2.86-3.87-4.88-5.55-5.89h-5.22c-1.18,1.18-2.19,2.02-2.69,2.19l-.84,9.26c-.17,1.18,1.01,4.04,3.03,8.75,3.03.51,5.72,1.35,8.08,2.53.17-.17.84-.34,1.68-.34s1.51.17,1.68.34c2.36-1.18,3.87-2.19,4.38-3.03,0-1.18-.34-2.53-.84-3.87.67-.67,1.01-1.18,1.35-1.68-.34-.67-1.01-2.19-2.02-4.88Z"/>
    <path class="cls-2" d="M766.85,545.02c.17-.17.84-.34,1.68-.34s1.51.17,1.68.34c2.36-1.18,3.87-2.19,4.38-3.03,0-1.18-.34-2.53-.84-3.87.67-.67,1.01-1.18,1.35-1.68-.34-.67-1.01-2.19-2.02-4.88-.67-1.85-1.68-2.86-3.03-3.37-2.02-2.86-3.87-4.88-5.55-5.89h-5.22c-1.18,1.18-2.19,2.02-2.69,2.19l-.84,9.26c-.17,1.18,1.01,4.04,3.03,8.75,3.03.51,5.72,1.35,8.08,2.53Z"/>
    <path class="cls-2" d="M792.96,536.86c.17-.17.84-.34,1.68-.34s1.51.17,1.68.34c2.36-1.18,3.87-2.19,4.38-3.03,0-1.18-.34-2.53-.84-3.87.67-.67,1.01-1.18,1.35-1.68-.34-.67-1.01-2.19-2.02-4.88-.67-1.85-1.68-2.86-3.03-3.37-2.02-2.86-3.87-4.88-5.55-5.89h-5.22c-1.18,1.18-2.19,2.02-2.69,2.19l-.84,9.26c-.17,1.18,1.01,4.04,3.03,8.75,3.03.51,5.72,1.35,8.08,2.53Z"/>
    <path class="cls-2" d="M709.33,548.85c-3.03-1.85-5.55-3.54-7.41-5.22v-1.68c-11.62-7.41-19.19-10.94-22.89-10.77-2.36-.84-4.21-1.18-6.06-1.18h-15.82c-2.36,0-5.05.5-8.25,1.51-3.2,1.01-4.71,1.52-4.71,1.52-.51,0-.84-.17-1.01-.34-1.18.51-2.02,1.01-2.69,1.52-2.69.67-4.71,1.18-5.89,1.51-7.24,4.71-11.45,8.59-12.62,11.45-.17,1.01-.84,3.37-2.02,6.9-1.01,3.37-1.52,5.22-1.52,5.39v12.12l-.84,7.74c0,3.54.84,8.58,2.69,15.15,1.85,3.2,3.2,5.55,4.04,7.07,4.32,3.78,7.97,6.57,10.82,8.48,0,0,0,0,0,0,1.42.93,4.79,4.16,5.51,5.95.72,1.79.19,4.2-.24,5.06-.43.86-.33,3.15,1.15,3.27,1.48.12,1.4-2.34.93-3.7s-.74-2.8-.7-4.59c.04-1.79.82-2.7,3.23-2.55h0c3,.77,4.87,1.14,5.56,1.04.84.5,1.51.67,2.02.67h.08c4.54,1.52,8.92,4.49,9,7.9.08,3.51-.46,6.33-1.37,9-.92,2.67-1.07,7.47,1.83,7.24,2.9-.23,3.1-4.73,2.26-6.4-.84-1.68-1.88-6.4-.47-9.91,1.41-3.51,7.89-9.57,10.78-10.57,0,0,0,0,0,0,3.61-.97,7.56-2.18,11.9-3.64,5.39-3.37,11.11-7.07,17.17-10.94,3.87-4.54,6.9-8.08,8.92-10.61.5-1.68.84-2.86,1.01-3.37,2.53-2.86,3.7-6.4,3.7-10.61,0-3.37-.34-7.07-1.01-10.94-3.53-7.74-5.89-12.29-7.07-13.47ZM698.56,567.87c0,1.68-1.35,3.87-4.04,6.23-2.19,2.02-6.56,4.38-13.13,7.07l-13.3,5.22c-1.18,0-5.05.67-11.45,1.85-2.86,0-6.06-.84-9.93-2.36-4.04-1.68-6.73-3.37-8.42-5.39-.34-1.18-.51-1.85-.51-1.68,0-1.01.84-2.69,2.36-5.39,1.51-2.53,2.36-3.87,2.36-4.04.67-.34,1.52-.84,2.53-1.68,0-.17-.34-.84-.84-2.02.84-.84,1.52-1.35,1.68-1.68-.5-1.18-.84-2.02-.84-2.53v-3.03l1.01-1.35,20.2-3.87,9.09-.34c4.71-.17,7.58.67,8.75,2.53h1.01c.17,0,.34-.17.51-.34.17,0,.5-.17.67-.17,3.7,0,7.74,3.54,12.29,10.77v2.19Z"/>
    <path class="cls-2" d="M842.65,557.32c.5-2.01.54-3.52.13-5.05-2.82-3.61-4.99-6.36-6.51-8.42-1.54-1.05-2.42-1.91-2.63-2.43l-3.59-.09c-.45-.01-1.12-.03-2.01-.22-.67-.19-1.12-.2-1.34-.2-2.29,1.96-4.86,5.77-7.48,11.59-2.38,5.33-4.28,9.49-5.47,12.15-.72,1.83-1.43,3.16-1.89,3.82-.77,3.85-4.01,7.47-9.71,11.03-2.73,1.61-7.74,4.35-15.45,7.85-5.19,1.04-8.35,1.8-9.47,1.94l-3.59-.09c0-.17-2.66-1.25-7.99-3.24-4.37-4.32-6.52-7.92-6.67-10.78-.05-6.57-4.63-11.74-13.51-15.34-1.34-.03-4.51,1.06-9.29,3.63-1.69,4.5-2.45,7.85-2.49,9.7-.08,3.2.49,7.25,1.47,12.33,11.83,19.5,25.93,29.46,42.74,29.9,1.34.03,5.39-.36,12.36-1.03,4.3-1.4,7.46-2.33,9.49-2.78,5.17-.54,10.62-2.92,16.11-6.99,2.74-1.95,6.87-5.55,12.17-10.8,4.64-5.77,8.13-10.73,9.58-14.91,2.89-7.67,4.62-13.69,5.84-17.7-.87-1.03-1.29-2.22-.8-3.89Z"/>
    <path class="cls-2" d="M894.84,559.29c-1.18-.84-2.19-1.52-2.86-2.02,0-.5-.17-.84-.34-1.01l11.61-1.51c1.52,0,5.72.5,12.62,1.35,8.25,2.19,11.61,3.2,10.1,3.2h1.35l4.38-3.03-.34-1.01c0-.5.34-1.18,1.18-2.36.84-1.18,1.18-2.02,1.18-2.36-1.85-4.04-5.05-7.41-9.59-10.1-2.19-1.35-6.56-3.03-12.79-5.39-9.93-1.18-14.48-1.85-13.97-1.85-21.71,0-32.82,3.03-33.33,8.92-1.01,1.85-1.52,3.03-1.52,3.54v8.92c.67.84,1.18,2.02,1.52,3.37,2.19,8.59,11.45,16.5,27.77,23.57,4.54,2.02,7.74,3.2,9.59,4.04,1.01.84,1.68,1.52,2.02,1.85,0,0-.34.34-1.18,1.01l-13.8,1.68h-5.55l-8.42,1.18h-6.23c-1.18,0-3.54.84-7.41,2.36.51,1.01.84,2.36.84,3.87,0,1.01,0,2.19-.34,3.37l.84.84c-.34.34-.5.67-.5,1.35,1.35,1.35,2.19,2.69,2.52,3.87.84.34,2.86,1.18,5.89,2.36,3.7,1.18,6.06,1.85,7.07,1.85h7.07l2.98.62c2.96,1.13,9.25,7.06,10.64,10.51,1.41,3.51.37,8.23-.47,9.91-.84,1.68-.64,6.18,2.26,6.4,2.9.23,2.74-4.57,1.83-7.24-.91-2.67-1.45-5.49-1.37-9,.08-3.51,5.96-8.37,10.64-9.85h-.04c1.96-.47,4.18-1.13,6.65-1.99l-.04.02c2.4-.15,3.19,1.66,3.23,3.45.04,1.79-.23,3.23-.7,4.59-.47,1.36-.55,3.82.93,3.7,1.48-.12,1.58-2.41,1.15-3.27s-1.02-3.29-.24-5.06c1.69-3.84,8.07-8.59,9.48-9.52,0,0,0,0,0,0,1.07-.7,1.75-1.33,2.05-1.86,1.18-2.86,1.85-5.55,1.85-7.91,0-12.96-13.47-24.74-40.23-35.35Z"/>
    <path class="cls-2" d="M441.85,522.13c-5.69,5.4-5.93,14.39-.53,20.08,5.4,5.69,14.39,5.93,20.08.53,5.69-5.4,5.93-14.39.53-20.08-5.4-5.69-14.39-5.93-20.08-.53Z"/>
    <circle class="cls-2" cx="469.69" cy="495.32" r="17.1" transform="translate(-41.57 947.62) rotate(-88.02)"/>
    <path class="cls-2" d="M518.42,477.56c8.56-8.12,8.92-21.65.79-30.21-8.12-8.56-21.65-8.92-30.21-.79-8.56,8.12-8.92,21.65-.79,30.21,8.12,8.56,21.65,8.92,30.21.79Z"/>
  </g>
</svg>