<?xml version="1.0" encoding="UTF-8"?>
<svg id="Layer_1" data-name="Layer 1" xmlns="http://www.w3.org/2000/svg" viewBox="0 0 1080 1080">
  <defs>
    <style>
      .cls-1 {
        fill: #fff;
      }
    </style>
  </defs>
  <path class="cls-1" d="M192.6,594.63l-1.66-1.87c-.83.21-1.66.21-2.69.21-1.66,0-3.52-.21-5.8-.62,0,0-20.31,7.05-33.78,8.91-20.52,3.11-53.47,3.32-53.47-1.04,0-5.18,20.31-12.23,30.67-14.92,12.02-3.11,23.63-2.28,35.44-4.14.21,0,1.66.21,4.35.83,2.49.62,3.94.83,4.14.83,2.7,0,5.18-1.24,7.05-3.73h5.8l3.32-13.06.83-99.69c-.62-1.45-1.04-2.28-1.45-2.49-.21-1.24-.21-2.07-.42-2.9.62-11.19-2.9-18.86-10.78-22.59-5.18.21-10.16,3.11-15.34,11.19-1.45,5.39-2.28,10.36-2.9,14.51-.41,1.66-.83,2.49-.83,2.49l-2.9,86.01c-.83.83-2.07,1.45-3.52,1.66-10.16,1.66-17.2,2.69-21.14,3.52-28.6,5.59-50.36,14.09-65.49,24.87-2.49,2.69-4.15,4.77-5.18,6.22-2.28,7.67-3.32,13.06-3.32,16.17,0,3.32,1.24,6.22,3.94,8.5,1.04,2.69,3.11,5.39,6.01,7.67,5.18,2.7,9.12,4.35,12.02,5.18,12.85,3.32,21.35,5.18,25.49,4.98l5.8-.21c3.52-.21,6.22-.41,7.87-.62.62-.62,1.25-.83,1.66-.83l9.95.62,4.14-.62c2.49-.21,6.22-.41,10.57-.41l9.95-2.07c.83,0,2.28-.21,4.35-.41,2.28-.41,3.32-.41,3.32-.41,8.29-3.73,14.51-6.43,18.65-8.29.83-1.04,3.32-2.49,7.05-4.35,3.52-1.87,5.59-3.32,6.22-4.15-.62-1.24-.83-2.28-.83-3.11,0-2.07,1.04-3.52,3.11-4.77,2.07-1.04,2.9-1.87,2.9-2.49-2.28-.62-3.73-1.45-4.56-2.07l1.45-2.49Z"/>
  <path class="cls-1" d="M322.98,613.28c1.45-2.9,2.69-4.77,3.52-6.01-2.9-2.28-5.6-7.46-6.84-9.33,0,0-25.49,8.7-37.31,8.7-10.16,0-24.87-2.9-27.15-4.14,0,0,20.31-7.05,31.51-14.51,7.67-5.18,16.58-13.26,18.03-15.34.21-1.87.21-3.11.41-4.15,1.24-1.86,1.87-3.52,1.87-4.97,0-.83-.21-1.66-.62-2.28.83-.83,1.24-1.45,1.24-2.07v-4.35c-1.87-4.14-2.9-7.25-2.9-9.74-.83-1.04-1.24-1.66-1.24-2.07-1.87-.41-3.32-.83-4.56-1.04,0-1.45,0-2.28.21-2.49-6.01-3.32-11.19-4.97-15.75-4.97-4.97,0-11.19.83-18.45,2.69-8.29,2.07-13.89,4.56-17.2,7.25-1.87,0-2.9,0-3.32.21-7.67,3.11-14.51,9.74-20.94,20.1-5.59,9.33-8.5,17.41-8.5,24.04,0,.83.42,1.87,1.04,3.52,2.07,10.57,7.05,19.9,14.92,27.98,10.99,7.25,25.91,11.4,44.36,12.64l25.7-3.32c.62-1.86,1.86-3.52,3.73-4.56,5.8-1.24,10.16-2.49,12.85-3.32,2.9-2.69,4.77-4.14,5.6-4.35-2.28-1.45-4.35-2.28-5.8-2.9,1.45-1.04,2.7-1.66,3.52-1.87.41.41,1.03.62,2.07.62ZM246.5,578.05c2.9-4.97,8.29-10.16,15.13-14.51,6.22-3.73,8.91-3.11,17.41-6.63.8,1.76,1.23,2.65,1.38,2.77-3.49,3.91-6.6,7.41-11.95,11.11-6.84,4.56-12.85,5.6-19.69,8.29-.83-.83-1.45-1.04-2.28-1.04Z"/>
  <path class="cls-1" d="M378.94,443.74c-1.66-.62-3.52-1.87-5.39-3.73l-4.35-.41c-2.07,2.07-3.94,5.6-5.18,10.36-1.45,5.18-2.49,9.12-3.11,11.61-2.69,26.94-5.39,52.23-8.29,76.27l-8.5,73.17c0,2.07.62,7.67,1.87,16.79,1.04,1.86,1.66,3.52,2.07,4.77,1.04-1.24,1.86-1.66,2.49-1.66,3.11,2.49,4.98,3.94,5.18,4.14.83,0,1.66,0,2.49-.21l1.24-.21c.62.62,1.45,1.04,2.28,1.04,2.69-1.24,4.97-1.66,7.25-1.66l18.24-160.42v-10.98c0-1.66-1.04-5.6-3.32-12.02-2.9-3.73-4.56-6.01-4.98-6.84Z"/>
  <path class="cls-1" d="M418.74,561.05c-1.45-1.04-2.49-1.45-3.32-1.45l-5.39,1.24c-.62,1.87-1.66,3.52-3.73,5.18l-2.49,12.02-.62,18.24c-.21,4.15,0,7.05.41,9.33,1.87,9.74,3.94,16.58,6.43,20.52,5.18,1.24,7.87,2.07,8.5,2.49.83-.41,1.45-.83,2.07-1.04.83.41,1.45.83,2.07,1.04.83-.62,1.45-1.04,2.07-1.45l2.28.41,3.11-7.46v-10.36c0-3.32,0-6.22.21-9.12.21-2.07.41-3.73.41-5.18.21-1.24.41-1.66.41-1.24v-12.64c0-3.11-1.04-6.43-3.32-10.36-3.94-4.35-7.05-7.88-9.12-10.16Z"/>
  <path class="cls-1" d="M552.43,556.08s-.06.03-.08.04c.05.12.08.11.08-.04Z"/>
  <path class="cls-1" d="M563.83,595.67l-12.43-3.11-46.84,5.18c-7.25,0-13.06-1.24-17-3.94,0-.41-.21-.83-.42-1.04,2.9-5.8,7.46-10.16,13.47-12.64,8.08-3.32,14.3-5.39,18.45-6.84,2.28-2.28,3.73-3.52,4.35-3.94,18.24-8.31,27.94-12.65,28.94-13.22-.08-.19-.21-.72-.34-1.49,1.87-2.07,3.52-4.14,4.56-6.43l-4.77-13.68c-.83.21-1.66.41-2.69.41-.62,0-1.45,0-2.9-.21-1.45-.21-2.07-.21-2.28-.21-3.52,0-7.88.83-13.06,2.49-7.05,2.28-10.57,3.32-10.98,3.32-3.94,1.66-6.63,3.11-8.29,3.73-23.63,10.57-40.83,21.35-51.82,32.75-1.45,1.24-3.32,4.77-5.39,10.98-2.07,6.01-3.11,10.78-3.11,13.89,0,6.84,3.73,14.3,10.99,22.39.62.21,2.9,1.04,6.63,2.69,3.32,1.24,5.59,2.07,7.25,2.07,0,0,.83-.21,2.28-.41l7.25,2.07c.21,0,.83,0,1.66-.21.83-.21,1.25-.41,1.45-.41l11.81,1.66c2.28-.41,4.56-.62,6.84-.83,3.11-.21,5.39-1.04,6.84-2.28.62.21,1.66.41,2.69.41,3.11,0,6.63-1.04,10.36-3.32,9.12-1.66,15.75-3.52,20.11-5.8,1.66-.83,2.49-2.07,2.49-3.32.62-.62,3.52-2.28,8.29-4.77,3.11-1.66,5.39-3.52,6.63-5.8.21-3.11.21-5.8,0-7.87l-1.04-2.28Z"/>
  <path class="cls-1" d="M601.76,561.05c-1.45-1.04-2.49-1.45-3.32-1.45l-5.39,1.24c-.62,1.87-1.66,3.52-3.73,5.18l-2.49,12.02-.62,18.24c-.21,4.15,0,7.05.41,9.33,1.87,9.74,3.94,16.58,6.43,20.52,5.18,1.24,7.88,2.07,8.5,2.49.83-.41,1.45-.83,2.07-1.04.83.41,1.45.83,2.07,1.04.83-.62,1.45-1.04,2.07-1.45l2.28.41,3.11-7.46v-10.36c0-3.32,0-6.22.21-9.12.21-2.07.41-3.73.41-5.18.21-1.24.42-1.66.42-1.24v-12.64c0-3.11-1.04-6.43-3.32-10.36-3.94-4.35-7.05-7.88-9.12-10.16Z"/>
  <path class="cls-1" d="M615.74,523.08c-.83-2.28-2.07-3.52-3.73-4.15-2.49-3.52-4.77-6.01-6.84-7.25h-6.42c-1.45,1.45-2.69,2.49-3.32,2.7l-1.03,11.4c-.21,1.45,1.24,4.98,3.73,10.78,3.73.62,7.05,1.66,9.95,3.11.21-.21,1.04-.41,2.07-.41s1.86.21,2.07.41c2.9-1.45,4.77-2.69,5.39-3.73,0-1.45-.41-3.11-1.03-4.77.83-.83,1.24-1.45,1.66-2.07-.41-.83-1.24-2.69-2.49-6.01Z"/>
  <path class="cls-1" d="M819.34,546.19c.21-.21,1.04-.41,2.07-.41s1.86.21,2.07.41c2.9-1.45,4.77-2.7,5.39-3.73,0-1.45-.41-3.11-1.04-4.77.83-.83,1.24-1.45,1.66-2.07-.41-.83-1.24-2.7-2.49-6.01-.83-2.28-2.07-3.52-3.73-4.15-2.49-3.52-4.77-6.01-6.84-7.25h-6.43c-1.45,1.45-2.69,2.49-3.32,2.69l-1.04,11.4c-.21,1.45,1.24,4.98,3.73,10.78,3.73.62,7.05,1.66,9.95,3.11Z"/>
  <path class="cls-1" d="M851.48,536.13c.21-.21,1.04-.41,2.07-.41s1.86.21,2.07.41c2.9-1.45,4.77-2.69,5.39-3.73,0-1.45-.41-3.11-1.03-4.77.83-.83,1.24-1.45,1.66-2.07-.41-.83-1.24-2.69-2.49-6.01-.83-2.28-2.07-3.52-3.73-4.15-2.49-3.52-4.77-6.01-6.84-7.25h-6.43c-1.45,1.45-2.69,2.49-3.32,2.69l-1.04,11.4c-.21,1.45,1.24,4.98,3.73,10.78,3.73.62,7.05,1.66,9.95,3.11Z"/>
  <path class="cls-1" d="M748.51,550.9c-3.73-2.28-6.84-4.35-9.12-6.43v-2.07c-14.3-9.12-23.63-13.47-28.19-13.26-2.9-1.04-5.18-1.45-7.46-1.45h-19.48c-2.9,0-6.22.62-10.16,1.86-3.94,1.25-5.8,1.87-5.8,1.87-.62,0-1.04-.21-1.24-.41-1.45.62-2.49,1.24-3.32,1.87-3.32.83-5.8,1.45-7.25,1.86-8.91,5.8-14.09,10.57-15.55,14.09-.21,1.24-1.04,4.15-2.49,8.5-1.24,4.14-1.87,6.43-1.87,6.63v14.92l-1.04,9.53c0,4.35,1.04,10.57,3.32,18.65,2.28,3.94,3.94,6.84,4.97,8.71,5.32,4.65,9.82,8.09,13.32,10.45,0,0,0,0,0,0,1.75,1.14,5.89,5.12,6.78,7.33.89,2.21.23,5.18-.3,6.23-.53,1.05-.4,3.88,1.42,4.03,1.82.14,1.73-2.88,1.15-4.55s-.91-3.45-.86-5.66c.05-2.21,1.01-3.33,3.97-3.15h0c3.69.94,6,1.4,6.85,1.28,1.04.62,1.86.83,2.49.83h.1c5.58,1.87,10.99,5.53,11.08,9.72.09,4.32-.56,7.79-1.69,11.08-1.13,3.29-1.31,9.2,2.25,8.92,3.57-.28,3.81-5.82,2.78-7.89-1.03-2.07-2.32-7.89-.58-12.2,1.74-4.32,9.71-11.79,13.28-13.01,0,0,0,0,0,0,4.44-1.19,9.31-2.69,14.65-4.49,6.63-4.14,13.68-8.71,21.14-13.47,4.77-5.6,8.5-9.95,10.98-13.06.62-2.07,1.04-3.52,1.24-4.15,3.11-3.52,4.56-7.88,4.56-13.06,0-4.14-.41-8.7-1.24-13.47-4.35-9.53-7.25-15.13-8.7-16.58ZM735.25,574.32c0,2.07-1.66,4.77-4.98,7.67-2.69,2.49-8.08,5.39-16.17,8.71l-16.37,6.43c-1.45,0-6.22.83-14.09,2.28-3.52,0-7.46-1.04-12.23-2.9-4.98-2.07-8.29-4.15-10.36-6.63-.41-1.45-.62-2.28-.62-2.07,0-1.24,1.04-3.32,2.9-6.63,1.86-3.11,2.9-4.77,2.9-4.98.83-.41,1.87-1.04,3.11-2.07,0-.21-.41-1.04-1.04-2.49,1.04-1.04,1.87-1.66,2.07-2.07-.62-1.45-1.03-2.49-1.03-3.11v-3.73l1.24-1.66,24.87-4.77,11.19-.41c5.8-.21,9.33.83,10.78,3.11h1.24c.21,0,.41-.21.62-.41.21,0,.62-.21.83-.21,4.56,0,9.53,4.35,15.13,13.26v2.7Z"/>
  <path class="cls-1" d="M912.66,561.33c.62-2.47.66-4.34.16-6.21-3.48-4.44-6.15-7.83-8.02-10.37-1.9-1.29-2.98-2.36-3.24-2.99l-4.42-.11c-.55-.01-1.38-.04-2.48-.27-.82-.23-1.37-.24-1.65-.25-2.82,2.41-5.98,7.1-9.21,14.27-2.93,6.56-5.28,11.68-6.74,14.96-.89,2.26-1.76,3.89-2.33,4.71-.95,4.74-4.93,9.2-11.95,13.58-3.37,1.99-9.53,5.35-19.03,9.67-6.39,1.28-10.28,2.22-11.66,2.39l-4.42-.11c0-.21-3.27-1.54-9.84-3.99-5.38-5.32-8.03-9.75-8.22-13.28-.06-8.09-5.7-14.45-16.63-18.88-1.66-.04-5.56,1.31-11.44,4.47-2.08,5.54-3.01,9.67-3.07,11.94-.1,3.94.6,8.93,1.82,15.18,14.57,24.01,31.93,36.28,52.62,36.82,1.66.04,6.64-.45,15.22-1.26,5.29-1.73,9.19-2.87,11.69-3.43,6.37-.66,13.08-3.6,19.83-8.61,3.38-2.4,8.46-6.83,14.98-13.3,5.71-7.11,10.01-13.22,11.8-18.35,3.56-9.45,5.69-16.86,7.2-21.79-1.07-1.27-1.59-2.74-.98-4.79Z"/>
  <path class="cls-1" d="M976.94,563.75c-1.45-1.04-2.69-1.87-3.52-2.49,0-.62-.21-1.04-.41-1.24l14.3-1.86c1.87,0,7.05.62,15.55,1.66,10.16,2.69,14.3,3.94,12.44,3.94h1.66l5.39-3.73-.41-1.24c0-.62.41-1.45,1.45-2.9,1.04-1.45,1.45-2.49,1.45-2.9-2.28-4.98-6.22-9.12-11.81-12.44-2.7-1.66-8.08-3.73-15.75-6.63-12.23-1.45-17.83-2.28-17.2-2.28-26.74,0-40.42,3.73-41.04,10.98-1.24,2.28-1.87,3.73-1.87,4.35v10.98c.83,1.04,1.45,2.49,1.87,4.14,2.69,10.57,14.09,20.31,34.2,29.02,5.6,2.49,9.53,3.94,11.81,4.97,1.24,1.04,2.07,1.87,2.49,2.28,0,0-.41.41-1.45,1.24l-17,2.07h-6.84l-10.36,1.45h-7.67c-1.45,0-4.35,1.04-9.12,2.9.62,1.24,1.04,2.9,1.04,4.77,0,1.24,0,2.69-.41,4.14l1.04,1.04c-.41.41-.62.83-.62,1.66,1.66,1.66,2.69,3.32,3.11,4.77,1.04.41,3.52,1.45,7.25,2.9,4.56,1.45,7.46,2.28,8.71,2.28h8.71l3.67.77c3.64,1.39,11.39,8.69,13.11,12.94,1.74,4.32.45,10.14-.58,12.2-1.03,2.07-.79,7.6,2.78,7.89,3.57.28,3.38-5.63,2.25-8.92-1.13-3.29-1.78-6.76-1.69-11.08.09-4.32,7.34-10.31,13.1-12.13h-.05c2.41-.58,5.14-1.4,8.19-2.45l-.05.03c2.96-.18,3.92,2.04,3.97,4.25.05,2.21-.29,3.98-.86,5.66-.58,1.68-.67,4.7,1.15,4.55,1.82-.14,1.95-2.97,1.42-4.03s-1.25-4.06-.3-6.23c2.08-4.73,9.93-10.58,11.68-11.72,0,0,0,0,0,0,1.31-.86,2.16-1.63,2.53-2.3,1.45-3.52,2.28-6.84,2.28-9.74,0-15.96-16.58-30.47-49.54-43.53Z"/>
  <path class="cls-1" d="M419.14,517.99c-7.01,6.65-7.3,17.72-.65,24.73,6.65,7.01,17.72,7.3,24.73.65,7.01-6.65,7.3-17.72.65-24.73-6.65-7.01-17.72-7.3-24.73-.65Z"/>
  <circle class="cls-1" cx="453.42" cy="484.99" r="21.05" transform="translate(-46.94 921.38) rotate(-88.02)"/>
  <path class="cls-1" d="M513.43,463.11c10.54-10,10.98-26.65.98-37.2-10-10.54-26.65-10.98-37.2-.98-10.54,10-10.98,26.65-.98,37.2,10,10.54,26.65,10.98,37.2.98Z"/>
</svg>